<?xml version="1.0" encoding="utf-8" ?><svg xmlns="http://www.w3.org/2000/svg" xmlns:xlink="http://www.w3.org/1999/xlink" width="270" height="154" viewBox="0 0 270 154"><path fill="#2D522C" transform="scale(0.200893 0.200521)" d="M591.68 161.115C594.369 160.996 598.535 161.013 601.502 161.131C652.203 163.699 716.692 165.169 756.938 199.752C771.131 211.948 768.611 242.751 768.239 260.427C765.319 263.557 753.534 275.773 750.372 276.401L749.393 275.603C748.513 272.527 748.942 254.533 748.939 249.922C680.852 292.697 514.349 292.408 446.725 250.192C446.027 262.175 446.443 274.556 446.256 286.255C445.853 311.29 444.746 317.551 468.374 329.636C498.566 345.078 528.323 347.274 560.94 351.117C579.969 352.599 599.07 352.962 618.142 352.204C626.164 351.805 634.165 351.303 642.103 350.067C644.985 349.618 647.856 349.009 650.778 349.42L651.168 350.199C642.399 354.303 618.393 371.292 610.554 371.626C560.943 373.74 487.67 368.749 446.577 339.039C445.802 354.104 446.491 369.542 446.288 384.655C446.209 390.52 446.194 396.819 446.653 402.654C451.761 410.444 458.875 415.101 466.11 421.152C453.415 421.75 439.014 421.636 426.727 422.681L426.83 280.853L426.706 242.423C426.652 228.807 424.859 213.179 435.741 203.042C474.062 167.345 542.317 163.316 591.68 161.115Z"/><path fill="#E4E4E3" transform="scale(0.200893 0.200521)" d="M586.204 181.504C599.233 181.293 616.895 180.64 629.75 181.925C666.025 185.55 706.469 188.997 738.035 208.645C743.61 212.115 750.045 221.809 744.204 228.097C733.047 239.382 714.319 245.608 699.408 249.525C681.095 254.336 662.58 257.899 643.802 259.676C632.259 260.768 620.687 260.057 609.164 261.151C565.811 263.537 512.729 258.23 472.143 242.425C433.275 227.29 446.267 210.85 477.226 199.572C513.395 186.395 547.927 182.072 586.204 181.504Z"/><path fill="#2D522C" transform="scale(0.200893 0.200521)" d="M850.302 336.392C853.686 336.314 857.486 336.497 860.903 336.585C860.605 389.112 852.901 434.863 824.515 480.229C789.634 535.974 726.218 551.443 664.224 551.526C669.417 544.218 673.163 540.701 678.95 534.063L706.489 502.665C728.219 477.444 749.82 452.112 771.292 426.671C777.866 418.367 785.965 409.276 792.85 400.919C781.622 408.215 758.738 429.7 747.818 439.729L694.46 488.188C688.267 493.869 666.396 512.769 663.005 516.959C662.623 513.949 662.464 510.944 662.366 507.913C661.407 478.044 663.213 448.28 676.084 420.804C679.27 414.003 682.942 407.221 688.157 401.742C695.566 393.958 716.769 384.33 727.016 378.426C741.171 370.271 753.429 359.64 767.297 351.28C787.291 339.226 827.122 336.791 850.302 336.392Z"/><path fill="#2D522C" transform="scale(0.200893 0.200521)" d="M927.388 132.039L927.718 132.354C930.619 141.618 925.119 169.957 925.105 181.172C925.078 203.431 920.648 227.508 920.695 249.436C915.844 244.557 894.635 228.9 888.175 223.917C881.698 232.851 871.009 243.497 863.087 251.482C836.257 278.403 808.653 303.561 778.247 326.689C682.846 399.253 566.087 446.394 444.922 442.312C437.16 442.05 427.038 439.692 419.11 438.563L419.089 438.151C421.128 435.673 455.038 436.73 461.91 435.586C620.33 409.23 749.224 319.58 845.905 193.734C837.111 184.794 822.522 177.772 816.226 167.63C828.465 166.814 862.733 154.201 875.921 149.549C890.725 144.326 913.085 137.678 927.388 132.039Z"/><path fill="#2D522C" transform="scale(0.200893 0.200521)" d="M426.949 454.147C433.36 455.044 439.789 455.807 446.232 456.437C446.474 469.636 442.901 498.586 453.912 507.052C482.73 529.209 523.323 532.869 558.328 537.825C566.625 538.999 581.512 538.337 590.167 538.369C607.94 538.574 625.715 538.346 643.477 537.684C640.016 540.994 636.652 544.403 633.389 547.909C630.619 551.21 628.113 553.739 625.093 556.781C567.258 557.674 484.68 560.099 437.939 518.372C426.291 507.973 426.558 491.682 426.611 477.264C426.595 469.557 426.708 461.85 426.949 454.147Z"/><path fill="#2D522C" transform="scale(0.200893 0.200521)" d="M579.675 439.923C601.837 442.507 624.211 447.492 639.465 465.06C652.703 480.305 652.183 494.851 650.976 513.301C645.423 507.036 637.935 499.919 631.942 493.92C623.872 485.844 615.844 477.157 606.628 470.487C607.666 472.407 609.503 475.03 610.749 476.923C618.905 488.747 642.166 514.59 647.327 525.276C628.083 522.789 615.526 522.871 599.826 508.976C581.155 492.452 580.595 463.6 579.675 439.923Z"/><path fill="#2D522C" transform="scale(0.200893 0.200521)" d="M518.592 452.53C522.233 451.441 537.558 449.21 542.214 448.611C549.612 447.658 559.63 444.96 566.209 444.12C566.33 451.586 566.577 459.049 566.951 466.506C553.607 465.358 530.886 462.925 517.933 459.253C518.69 459.052 518.96 458.801 519.666 458.38C520.62 455.887 520.476 454.325 518.592 452.53Z"/><path fill="#1A3919" transform="scale(0.200893 0.200521)" d="M499.814 455.908C505.578 454.639 512.688 453.575 518.592 452.53C520.476 454.325 520.62 455.887 519.666 458.38C518.96 458.801 518.69 459.052 517.933 459.253C511.854 458.27 505.798 457.373 499.814 455.908Z"/></svg>