<?xml version="1.0" encoding="utf-8" ?><svg xmlns="http://www.w3.org/2000/svg" xmlns:xlink="http://www.w3.org/1999/xlink" width="270" height="154" viewBox="0 0 270 154"><path fill="#2E522C" transform="scale(0.200893 0.200521)" d="M593.115 161.119C593.57 161.092 594.396 161.036 594.889 161.055C647.117 163.078 716.68 164.059 757.666 200.513C770.577 211.997 768.558 244.476 768.199 260.225C765.06 263.69 754.469 276.485 750.039 274.608C747.834 270.582 748.868 255.389 748.97 250.038C676.611 294.023 520.457 291.133 446.636 250.52C446.173 261.213 444.999 298.49 446.857 307.507C453.667 340.568 541.435 350.082 566.153 351.336C584.661 353.338 607.405 352.697 626.06 351.661C634.647 351.184 643.469 349.416 652.026 349.383C645.637 353.258 618.293 370.711 612.058 371.009C556.72 373.657 493.928 369.348 446.358 338.992C446.022 358.499 445.587 383.301 446.494 402.571C452.572 410.458 458.546 415.486 466.555 421.329C453.305 421.524 440.02 421.674 426.803 422.593L426.9 285.087L426.628 246.926C426.519 234.273 424.857 213.023 434.927 203.763C475.535 166.423 540.777 163.387 593.115 161.119ZM606.539 261.28C619.323 260.334 632.508 260.099 646.443 259.273C671.233 257.803 799.467 233.584 721.876 200.171C685.875 184.669 628.677 179.901 588.154 181.523C549.556 181.981 515.657 186.025 479 198.958C435.511 214.301 439.339 232.067 481.024 245.626C523.461 259.43 562.318 262.131 606.539 261.28Z"/><path fill="#2E522C" transform="scale(0.200893 0.200521)" d="M833.657 337.109C841.58 336.337 852.634 336.492 860.593 336.65C860.691 337.661 860.743 338.677 860.748 339.692C860.7 403.24 843.442 477.08 790.013 517.262C755.114 543.508 707.116 551.576 664.18 551.434C665.393 549.692 667.037 547.542 668.455 545.952C701.241 509.168 733.223 471.727 765.12 434.169C773.626 423.42 784.915 410.094 793.982 399.821C773.516 414.607 746.724 440.203 727.633 457.89C707.091 476.921 682.797 497.349 663.027 516.647C662.748 514.789 662.559 512.918 662.459 511.042C660.518 477.614 664.307 430.573 686.968 403.338C695.133 393.525 717.101 384.485 728.486 377.495C739.631 370.652 750.593 362.748 761.319 355.134C780.629 341.427 810.169 338.269 833.657 337.109Z"/><path fill="#2E522C" transform="scale(0.200893 0.200521)" d="M925.674 132.505L927.435 132.612C930.627 137.928 925.412 170.484 925.23 178.506C924.698 201.967 921.115 225.448 920.523 248.969C911.122 240.686 898.392 231.575 888.223 223.652C878.775 236.044 866.799 247.63 855.679 258.613C825.364 289.096 792.476 316.906 757.38 341.733C667.074 405.32 556.848 446.25 445.433 442.228C437.165 441.93 428.832 440.372 420.685 438.957L419.437 438.481L419.956 437.757C430.55 435.102 450.356 437.049 461.846 435.325C489.196 431.221 518.786 423.699 544.946 415.111C633.244 385.503 713.424 335.709 779.117 269.684C803.993 244.958 824.367 220.873 846.11 193.658C834.624 183.221 827.299 180.318 815.965 167.69C830.923 166.097 862.628 154.02 877.269 149.075C892.173 144.042 911.13 138.185 925.674 132.505Z"/><path fill="#2E522C" transform="scale(0.200893 0.200521)" d="M426.996 454.184L446.209 456.449L445.734 474.51C445.571 483.093 446.362 501.156 453.403 506.342C504.486 543.968 585.591 537.732 643.216 537.746C640.188 540.729 637.152 543.887 634.161 546.925C631.189 550.186 628.155 553.391 625.061 556.538C564.591 557.808 484.286 560.133 436.407 516.805C423.413 505.045 426.353 470.735 426.996 454.184Z"/><path fill="#2E522C" transform="scale(0.200893 0.200521)" d="M579.776 440.069L580.33 440.108C600.533 441.59 625.839 448.698 639.2 464.789C652.099 480.325 652.367 494.431 650.992 513.241C637.15 498.879 621.23 482.221 605.919 469.778L610.032 476.164C622.789 493.62 635.82 506.652 647.457 525.298C625.799 522.771 611.626 521.547 595.537 504.418C583.093 491.169 578.412 457.507 579.776 440.069Z"/><path fill="#2E522C" transform="scale(0.200893 0.200521)" d="M518.556 452.489C533.366 449.288 550.735 447.128 566.266 444.129C566.564 451.42 566.977 459.279 566.971 466.532C551.448 464.841 534.46 463.288 519.399 459.63C519.524 458.886 519.634 458.141 519.729 457.393C520.061 454.65 519.961 454.276 518.556 452.489Z"/><path fill="#1D3719" transform="scale(0.200893 0.200521)" d="M500.11 455.849C506.15 454.524 512.446 453.531 518.556 452.489C519.961 454.276 520.061 454.65 519.729 457.393C519.634 458.141 519.524 458.886 519.399 459.63C514.206 458.321 505.787 457.034 500.11 455.849Z"/></svg>