<?xml version="1.0" encoding="utf-8" ?><svg xmlns="http://www.w3.org/2000/svg" xmlns:xlink="http://www.w3.org/1999/xlink" width="512" height="293" viewBox="0 0 512 293"><path fill="#2B512B" transform="scale(0.380952 0.38151)" d="M575.963 113.852C581.23 113.104 592.983 113.369 599.291 113.634C651.629 115.834 716.394 123.034 757.522 157.897C770.401 168.815 767.684 205.452 767.172 221.598C761.095 228.123 752.925 235.549 746.209 241.324L746.671 210.278C670.218 256.784 499.793 254.782 422.809 210.211C423.497 224.196 421.427 264.293 423.941 274.283C431.403 303.933 517.572 315.819 540.587 318.218C579.652 320.921 605.455 320.545 644.543 316.764C631.554 324.414 612.723 336.251 598.596 340.663C592.425 342.59 572.563 341.191 565.07 340.862C525.398 339.122 483.873 334.166 447.006 318.668C438.704 315.178 430.828 310.569 423.041 306.078L423.01 342.146C422.719 373.172 417.359 375.565 444.909 392.301C428.815 394.448 418.241 394.84 402.265 394.48L402.317 241.607C402.354 229.016 402.294 216.425 402.137 203.835C401.811 169.74 402.327 158.212 435.65 141.13C478.822 118.999 528.466 116.348 575.963 113.852ZM602.926 222.504C643.288 220.763 685.791 215.495 723.138 199.339C762.562 182.283 738.783 163.307 711.105 153.953C667.165 139.102 613.143 132.764 566.742 136.177C566.466 136.198 566.19 136.222 565.914 136.25C526.739 138.146 490.994 141.671 453.931 155.854C421.111 168.414 411.551 184.739 449.69 200.837C497.799 221.143 551.5 222.906 602.926 222.504Z"/><path fill="#2B512B" transform="scale(0.380952 0.38151)" d="M847.352 303.581C852.903 303.453 859.192 303.643 864.801 303.683C864.811 308.397 864.77 313.111 864.679 317.825C863.216 376.07 845.364 447.022 802.034 487.567C762.628 524.439 707.38 535.953 655.069 534.456C666.166 520.636 681.487 504.177 693.346 490.413L766.436 404.56C775.878 393.728 784.97 382.595 793.699 371.179C782.505 379.757 770.484 390.671 759.841 400.07C738.138 419.328 716.662 438.839 695.417 458.6C681.605 471.463 668.655 484.307 654.316 496.603C654.087 493.613 653.895 490.62 653.74 487.625C651.821 449.238 656.698 404.695 681.379 373.555C684.354 369.802 713.116 353.529 719.089 350.62C736.848 341.968 754.561 325.236 770.588 316.96C787.709 308.12 827.497 304.329 847.352 303.581Z"/><path fill="#2B512B" transform="scale(0.380952 0.38151)" d="M934.928 86.6624L935.883 86.5874C936.759 87.8589 928.595 199.493 928.497 212.378C917.539 204.087 904.499 194.401 894.27 185.472C866.301 216.107 836.224 244.748 804.26 271.186C696.578 359.777 564.51 422.517 422.836 415.919C412.708 415.447 403.305 413.744 393.314 412.771L393.008 412.543L393.083 411.912C396.671 411.105 411.177 411.306 415.834 411C427.293 410.248 437.643 409.069 448.992 407.143C540.501 391.621 634.172 349.479 708.077 293.709C738.733 270.306 767.399 244.404 793.781 216.268C815.48 193.447 831.442 175.771 849.701 150.289C840.297 143.371 826.557 132.401 817.787 124.849C857.922 113.479 895.444 99.0118 934.928 86.6624Z"/><path fill="#2B512B" transform="scale(0.380952 0.38151)" d="M402.278 429.956L423.253 431.963C423.139 444.02 422.906 456.397 423.184 468.415C423.336 475.01 426.067 482.273 431.794 486.419C471.534 515.189 536.992 519.612 584.739 521.199C597.589 521.626 621.122 519.316 633.446 518.527C630.645 521.91 627.218 525.579 624.253 528.885C620.458 532.897 616.708 536.953 613.007 541.053C562.613 544.929 500.045 538.687 452.478 521.165C437.303 515.575 408.868 501.121 404.384 484.265C400.858 471.01 402.3 444.648 402.278 429.956Z"/><path fill="#2B512B" transform="scale(0.380952 0.38151)" d="M343.661 628.991C357.92 628.069 361.321 629.2 371.011 639.291L370.988 630.153L388.548 630.202C389.212 655.45 390.626 684.617 386.65 709.288C383.945 726.069 361.1 730.818 347.184 728.437C333.723 726.133 328.082 723.339 321.876 711.355C321.261 709.042 321.126 709.796 321.754 707.753C324.838 705.17 334.124 706.775 338.702 707.073C342.335 712.392 347.874 716.319 354.556 716.249C358.604 716.188 362.457 714.502 365.247 711.569C371.292 705.323 370.835 697.345 370.751 689.429C367.143 692.985 361.548 697.271 356.609 698.499C315.796 708.649 303.231 640.167 343.661 628.991ZM358.619 684.37C370.248 678.713 375.283 665.028 369.309 653.489C367.194 649.308 363.479 646.16 359.008 644.761C355.929 643.81 353.569 643.883 350.38 643.985C331.519 651.691 331.586 685.599 358.619 684.37Z"/><path fill="#2B512B" transform="scale(0.380952 0.38151)" d="M714.635 628.989C728.123 628.13 732.413 629.545 741.887 639.335L741.839 630.274C747.515 630.106 753.71 630.225 759.428 630.223C759.298 643.247 759.284 656.272 759.386 669.297C759.461 681.621 760.311 695.777 757.784 707.719C752.703 731.72 721.335 732.698 703.393 724.146C698.814 721.963 696.023 717.584 693.546 713.392C692.528 710.927 692.164 710.307 693.383 708.071C697.223 705.388 704.712 706.691 709.69 707.027C715.898 715.381 727.753 719.341 736.57 711.719C741.811 707.188 741.099 696.872 741.155 690.352C736.981 694.106 732.682 697.706 727.068 699.024C685.552 708.774 675.461 638.067 714.635 628.989ZM728.696 684.362C748.556 678.327 747.12 642.455 721.934 643.999C705.403 650.307 703.294 674.651 719.114 683.026C721.598 684.341 725.831 684.308 728.696 684.362Z"/><path fill="#2B512B" transform="scale(0.380952 0.38151)" d="M566.395 414.897C568.323 415.068 570.249 415.26 572.173 415.473C618.595 420.601 647.776 444.828 642.352 493.681C631.054 483.868 605.942 455.222 595.257 448.436C595.05 449.619 596.345 451.084 597.152 452.388C610.32 470.238 625.058 487.342 638.222 505.49C637.414 505.499 636.606 505.496 635.798 505.481C607.942 504.956 583.909 494.018 572.924 467.216C565.796 449.823 565.995 433.25 566.395 414.897Z"/><path fill="#2B512B" transform="scale(0.380952 0.38151)" d="M101.315 639.854C107.424 631.909 112.009 629.331 121.939 628.75C151.171 627.04 148.437 655.505 148.386 675.368C148.354 683.735 148.374 692.103 148.446 700.469L130.067 700.474C130.15 692.946 131.488 651.403 126.685 647.958C100.734 629.345 103.565 671.071 104.014 685.128C104.192 689.987 104.031 695.54 103.991 700.457C98.2404 700.57 92.2461 700.485 86.474 700.486C86.1693 688.611 88.9133 654.763 81.8365 646.795C80.0212 644.751 77.6748 643.693 74.9559 643.555C71.5762 643.383 68.0752 644.621 65.6559 646.991C63.2272 649.369 61.9137 652.689 61.2305 655.965C59.0689 666.332 61.0007 688.547 61.0076 700.471C54.9447 700.589 48.671 700.515 42.5893 700.524L42.6586 630.221C48.4421 630.08 54.6204 630.176 60.4381 630.163L60.3721 639.124C65.3645 632.959 67.1186 631.159 74.6771 628.964C88.5967 628.088 92.3865 629.25 101.315 639.854Z"/><path fill="#2B512B" transform="scale(0.380952 0.38151)" d="M597.43 639.535C597.685 639.246 597.942 638.959 598.201 638.675C604.382 631.889 609.243 629.213 618.254 628.787C645.274 627.508 644.622 650.083 644.164 670.028C643.936 679.932 643.946 690.93 644.327 700.625L626.082 700.509C626.189 689.746 627.691 651.28 622.471 647.647C595.084 628.58 600.197 679.805 600.448 685.838L600.451 700.457L582.824 700.435C582.898 695.111 589.491 625.022 561.963 647.327C554.262 653.566 557.254 688.008 557.516 700.474L539.319 700.477C539.444 678.935 540.297 651.371 538.974 630.131L557.146 630.169L557.102 639.111C562.18 632.782 564.243 630.819 572.076 628.938C585.18 628.204 589.411 629.419 597.43 639.535Z"/><path fill="#2B512B" transform="scale(0.380952 0.38151)" d="M192.442 628.479C212.806 626.877 230.589 642.147 232.09 662.524C233.591 682.901 218.237 700.612 197.857 702.012C177.62 703.403 160.064 688.176 158.574 667.941C157.083 647.706 172.219 630.07 192.442 628.479ZM200.023 687.236C221.362 674.799 216.11 640.868 190.69 643.441C170.39 654.775 173.378 688.719 200.023 687.236Z"/><path fill="#2B512B" transform="scale(0.380952 0.38151)" d="M429.707 629.126C449.612 625.5 468.698 638.665 472.385 658.563C476.071 678.462 462.969 697.593 443.087 701.343C423.117 705.109 403.888 691.933 400.185 671.947C396.482 651.961 409.714 632.767 429.707 629.126ZM440.283 687.218C461.811 677.293 457.397 641.432 432.347 643.402C412.223 651.75 413.402 688.629 440.283 687.218Z"/><path fill="#2B512B" transform="scale(0.380952 0.38151)" d="M969.484 628.972C969.97 628.929 970.457 628.893 970.944 628.862C1001.36 626.95 1007.43 643.711 1009.08 670.199L958.102 670.262C963.237 688.112 978.243 695.843 990.66 678.945C993.314 678.801 996.454 678.824 999.153 678.772L1008.52 679.243C1004.36 690.414 997.878 698.549 985.668 701.381C949.518 709.767 929.26 672.479 946.682 642.944C951.41 634.93 960.564 630.742 969.484 628.972ZM958.546 658.249L976.992 657.964C981.977 658.088 989.01 659.446 991.004 653.885C989.934 646.703 978.391 642.157 971.556 642.707C962.886 646.453 961.148 649.176 958.546 658.249Z"/><path fill="#2B512B" transform="scale(0.380952 0.38151)" d="M850.984 628.466C896.973 625.179 877.762 672.538 884.811 700.419L866.357 700.451L866.198 691.635C864.949 692.855 863.641 694.013 862.278 695.105C849.516 705.396 833.156 705.247 822.781 691.833C820.151 686.99 818.547 678.523 821.137 673.372C827.961 659.803 846.256 659.848 858.912 655.689C861.368 654.881 863.514 653.604 864.595 651.211C864.932 643.468 851.958 640.698 846.386 643.721C842.072 646.061 841.939 647.32 840.313 651.692L822.751 651.717C826.312 634.205 833.522 630.182 850.984 628.466ZM841.176 686.38C846.215 688.684 849.686 688.101 855.144 687.784C859.57 685.123 861.293 683.709 864.245 679.459C864.351 676.629 864.823 669.56 864.262 667.143C854.404 668.896 831.25 671.14 841.176 686.38Z"/><path fill="#2B512B" transform="scale(0.380952 0.38151)" d="M1076.33 600.15C1082.25 599.951 1088.3 600.071 1094.23 600.124C1094.41 619 1093.62 638.663 1094.58 657.477C1102.98 649.714 1112.55 638.736 1120.57 630.144C1126.96 629.787 1135.41 630.161 1141.94 630.269C1133.27 638.991 1124.28 648.91 1115.78 657.914C1120.8 663.664 1131.07 680.403 1135.67 687.589C1138.49 691.986 1141.86 696.534 1144.92 700.813C1137.67 700.879 1130.7 701.013 1123.45 700.526C1116.7 690.614 1109.99 679.996 1103.42 669.92C1100.32 672.674 1097.33 675.841 1094.42 678.814C1094.2 686.026 1094.19 693.244 1094.39 700.457L1076.44 700.467L1076.33 600.15Z"/><path fill="#2B512B" transform="scale(0.380952 0.38151)" d="M277.492 628.968C278.879 628.902 280.266 628.85 281.653 628.813C311.31 628.053 307.916 655.414 307.677 676.404L307.608 700.371L289.635 700.42C289.71 691.685 290.398 682.86 290.255 674.148C289.995 658.301 289.926 637.552 268.031 645.925C258.601 653.863 261.738 687.681 262.011 700.518L244.088 700.48L243.712 629.991L261.21 630.207C261.237 633.183 261.461 636.393 261.612 639.384C267.285 633.116 269.067 630.839 277.492 628.968Z"/><path fill="#2B512B" transform="scale(0.380952 0.38151)" d="M1189.84 610.626L1207.67 610.487C1207.65 617.035 1207.67 623.583 1207.73 630.13L1221.93 630.188L1222.09 643.958L1207.64 643.902C1207.51 652.156 1205.95 678.273 1211.04 684.772C1212.41 686.527 1219.16 686.135 1221.82 686.105L1221.85 699.55C1217.59 703.801 1198.89 700.826 1195.04 695.417C1186.55 683.467 1189.53 658.145 1189.83 643.577L1179.17 643.889L1178.8 630.147L1189.68 630.087C1189.47 623.985 1189.75 616.808 1189.84 610.626Z"/><path fill="#2B512B" transform="scale(0.380952 0.38151)" d="M903.476 610.77L919.347 610.513L919.465 630.119L933.713 630.185C933.777 634.843 933.634 638.78 933.397 643.43L919.309 643.627C919.328 651.269 917.732 677.576 921.775 683.614C923.279 685.86 930.453 685.935 933.5 686.097L933.478 698.266C933.265 699.342 933.301 699.04 932.7 700.029C920.754 703.833 903.963 699.939 902.386 686.149C900.87 672.891 901.664 656.81 901.797 643.405L891.244 643.357L890.996 630.149C893.99 629.688 898.213 629.692 901.328 629.601C901.387 625.774 901.21 614.361 902.034 611.329L903.476 610.77Z"/><path fill="#2B512B" transform="scale(0.380952 0.38151)" d="M807.496 628.903C808.148 628.837 808.801 628.782 809.454 628.737C819.925 628.036 817.461 637.619 817.153 645.148C799.727 645.233 792.422 649.609 792.75 668.489C792.934 679.047 793.179 689.894 793.366 700.464L775.091 700.442C774.513 677.404 775.461 653.53 774.964 630.266L792.635 630.236L792.618 641.586C797.563 634.25 799.019 632.043 807.496 628.903Z"/><path fill="#2B512B" transform="scale(0.380952 0.38151)" d="M1151.14 630.177L1169.4 630.202C1169.1 653.645 1169.12 677.09 1169.46 700.532C1163.2 700.679 1157.3 700.581 1151.04 700.446C1151.46 677.025 1151.5 653.598 1151.14 630.177Z"/><path fill="#2B512B" transform="scale(0.380952 0.38151)" d="M659.714 630.156L677.652 630.185C677.871 652.722 676.785 678.495 677.787 700.417L659.733 700.465C659.768 680.355 660.879 649.552 659.714 630.156Z"/><path fill="#2B512B" transform="scale(0.380952 0.38151)" d="M546.103 420.329C548.049 420.094 548.206 420.006 550.026 420.582C552.485 423.885 551.843 437.598 551.858 442.54C536.102 442.47 510.279 437.422 494.984 434.059C489.224 432.646 485.276 431.387 479.662 429.426C500.094 429.158 525.74 423.865 546.103 420.329Z"/><path fill="#2B512B" transform="scale(0.380952 0.38151)" d="M483.708 655.815C497.001 655.25 512.347 655.565 525.793 655.528C525.91 660.223 525.703 665.646 525.627 670.397C513.157 671.122 496.466 670.612 483.724 670.551L483.708 655.815Z"/><path fill="#2B512B" transform="scale(0.380952 0.38151)" d="M1020.42 655.754C1034.41 655.569 1048.41 655.57 1062.4 655.756L1062.43 670.25C1048.45 670.176 1034.48 670.213 1020.51 670.362L1020.42 655.754Z"/><path fill="#2B512B" transform="scale(0.380952 0.38151)" d="M665.286 599.189C670.833 597.331 676.833 600.337 678.668 605.893C680.503 611.449 677.474 617.439 671.912 619.252C666.381 621.055 660.435 618.046 658.61 612.521C656.786 606.997 659.77 601.036 665.286 599.189Z"/><path fill="#2B512B" transform="scale(0.380952 0.38151)" d="M1158.82 598.917C1164.57 598.054 1169.93 602.025 1170.78 607.779C1171.63 613.532 1167.65 618.883 1161.89 619.719C1156.16 620.552 1150.83 616.585 1149.98 610.85C1149.14 605.116 1153.09 599.778 1158.82 598.917Z"/></svg>