<?xml version="1.0" encoding="utf-8" ?><svg xmlns="http://www.w3.org/2000/svg" xmlns:xlink="http://www.w3.org/1999/xlink" width="270" height="154" viewBox="0 0 270 154"><path fill="#E6E6E4" transform="matrix(0.200893 0 0 0.200521 -0.000976562 0)" d="M0 0L1344 0L1344 768L0 768L0 0Z"/><path fill="#2A512B" transform="matrix(0.200893 0 0 0.200521 -0.000976562 0)" d="M563.091 114.498C619.637 110.593 711.175 118.78 756.095 156.336C771.52 169.233 767.347 202.421 767.259 221.671C762.09 227.129 752.008 236.527 746.309 241.324C746.719 231.125 746.602 220.415 746.623 210.165C675.244 256.862 493.188 254.376 422.925 210.198C423.773 231.298 422.234 252.992 423.712 274.025C424.176 280.632 433.622 288.093 439.175 291.235C466.686 306.805 500.56 313.804 531.719 317.29C565.319 321.425 610.858 320.847 644.438 316.784C631.865 324.364 612.376 336.3 598.503 341.048C593.783 342.664 570.756 341.314 564.719 341.021C524.096 339.05 482.153 333.987 444.53 317.712C437.291 314.58 429.929 310.087 423.127 306.036L423.136 346.989C423.12 375.507 418.785 376.973 444.968 392.239C429.795 393.959 417.532 395.311 402.211 394.493L402.215 242.572L402.221 201.008C402.212 186.174 400.106 169.413 411.721 158.259C448.014 123.409 515.371 117.177 563.091 114.498Z"/><path fill="#E6E6E4" transform="matrix(0.200893 0 0 0.200521 -0.000976562 0)" d="M565.275 136.205C573.274 135.617 583.271 135.823 591.374 135.87C630.258 136.097 670.284 139.951 707.207 152.712C717.547 156.285 729.046 160.727 737.581 167.882C740.903 170.667 743.727 174.638 744.083 179.024C744.339 182.176 742.416 186.444 740.189 188.399C711.771 213.352 640.711 221.028 605.226 222.424C556.838 223.962 475.692 220.146 433.012 191.572C429.712 189.132 425.089 184.58 424.895 180.214C424.399 169.068 440.306 161.62 448.966 157.953C485.927 142.304 525.574 137.916 565.275 136.205Z"/><path fill="#2A512B" transform="matrix(0.200893 0 0 0.200521 -0.000976562 0)" d="M835.825 304.187C842.995 303.266 857.521 303.663 864.928 303.766C864.934 308.937 864.876 314.109 864.755 319.278C862.959 377.086 845.228 447.795 801.847 487.956C762.677 524.219 706.697 536.373 654.787 534.693C657.956 530.434 664.291 523.656 667.945 519.5L692.335 491.582L762.102 409.55C770.83 399.267 785.894 382.408 792.978 371.837C785.167 377.414 771.12 390.319 763.514 396.989C738.949 418.78 714.647 440.867 690.615 463.246C679.81 473.248 665.409 487.759 654.286 496.613C651.688 462.483 653.373 427.845 667.783 396.224C671.509 388.048 678.496 374.006 686.258 368.973C691.044 365.871 697.961 362.73 703.135 359.872C714.456 353.586 725.589 346.965 736.516 340.016C744.274 335.023 767.896 317.162 773.036 315.441C791.331 309.316 816.694 306.018 835.825 304.187Z"/><path fill="#2A512B" transform="matrix(0.200893 0 0 0.200521 -0.000976562 0)" d="M817.948 124.92C856.748 114.177 897.409 97.9746 936.49 86.22L930.461 176.638C929.807 187.698 928.553 201.573 928.394 212.33C918.101 204.233 903.925 193.832 894.282 185.519C783.598 306.856 634.391 406.91 464.804 415.976C449.195 416.811 415.171 417.229 400.344 413.557C396.776 413.371 395.191 413.14 391.677 412.423C394.252 410.435 412.347 410.979 416.568 411.103C448.284 409.494 491.424 399.241 521.664 389.628C596.859 365.684 666.889 327.827 728.113 278.026C760.193 251.605 787.529 223.905 815.277 193.178C827.614 179.688 839.065 165.413 849.557 150.443C842.89 144.978 822.986 129.998 817.948 124.92Z"/><path fill="#738473" transform="matrix(0.200893 0 0 0.200521 -0.000976562 0)" d="M400.344 413.557C396.776 413.371 395.191 413.14 391.677 412.423C394.252 410.435 412.347 410.979 416.568 411.103C412.617 412.735 404.363 410.695 400.344 413.557Z"/><path fill="#2A512B" transform="matrix(0.200893 0 0 0.200521 -0.000976562 0)" d="M402.191 429.766C409.065 430.678 416.368 431.287 423.297 431.976C423.255 444.452 423.148 457.097 423.25 469.548C423.299 475.56 426.003 482.183 431.036 486C466.625 512.992 529.418 518.576 572.754 520.897C591.939 521.924 615.678 519.459 633.465 518.488C630.89 521.801 627.221 525.762 624.373 528.991C620.661 532.72 616.695 537.251 613.105 541.174C606.323 541.715 596.211 541.568 589.171 541.618C541.436 541.959 491.374 537.52 446.978 519.001C428.405 511.253 403.336 497.113 402.454 474.949C401.881 460.541 402.21 444.345 402.191 429.766Z"/><path fill="#2A512B" transform="matrix(0.200893 0 0 0.200521 -0.000976562 0)" d="M714.707 628.966C728.495 628.07 732.626 629.3 741.725 639.451L741.811 630.115L759.629 630.084C759.381 644.94 759.323 659.8 759.456 674.658C759.468 685.442 760.215 697.6 757.886 708.083C752.637 731.7 721.485 732.819 703.582 724.388C699.136 722.294 695.991 717.82 693.656 713.69C692.944 711.676 692.061 710.109 692.714 708.208C695.71 705.65 705.039 706.977 710.059 706.985C715.144 716.791 728.463 718.399 736.867 711.673C742.079 707.501 741.207 696.584 741.238 690.151C736.667 694.487 732.875 697.752 726.48 699.134C684.248 708.261 676.62 636.486 714.707 628.966Z"/><path fill="#E6E6E4" transform="matrix(0.200893 0 0 0.200521 -0.000976562 0)" d="M721.157 644.092C724.609 643.878 728.174 643.349 731.476 644.798C742.65 649.701 744.264 665.781 739.709 675.717C737.427 680.694 734.066 682.781 728.954 684.529C710.618 685.604 705.617 671.126 710.331 654.941C711.909 649.523 716.138 646.341 721.157 644.092Z"/><path fill="#2A512B" transform="matrix(0.200893 0 0 0.200521 -0.000976562 0)" d="M343.742 628.982C357.525 628.156 361.996 629.048 370.943 639.672L371.076 630.054L388.643 630.092C388.748 645.413 390.494 700.044 386.393 711.175C383.983 717.717 379.235 722.726 372.873 725.555C362.11 730.341 346.877 729.912 336.02 725.701C328.561 722.808 324.96 718.02 321.84 710.884C321.381 709.309 321.197 709.049 321.468 707.485C324.96 704.686 332.944 707.706 337.648 706.95C339.836 706.862 341.048 711.088 342.333 712.011C348.619 716.526 360.136 717.577 365.775 711.661C371.774 705.367 370.808 696.926 370.771 689.296C361.618 700.07 344.911 703.064 333.72 695.222C311.133 679.394 314.292 635.603 343.742 628.982Z"/><path fill="#E6E6E4" transform="matrix(0.200893 0 0 0.200521 -0.000976562 0)" d="M349.787 644.102C375.807 640.474 378.05 675.931 359.351 684.199C351.402 685.221 343.421 683.846 340.086 675.922C334.819 663.409 337.382 650.089 349.787 644.102Z"/><path fill="#2A512B" transform="matrix(0.200893 0 0 0.200521 -0.000976562 0)" d="M566.576 414.9C600.581 417.571 637.868 432.413 642.411 470.79C643.4 479.143 643.073 485.145 642.452 493.595C638.567 490.372 634.956 486.009 631.303 482.639C620.187 472.386 605.574 455.705 593.923 447.106L597.088 452.21L638.245 505.545C581.11 505.311 562.703 466.895 566.576 414.9Z"/><path fill="#2A512B" transform="matrix(0.200893 0 0 0.200521 -0.000976562 0)" d="M75.3479 628.933C87.3005 627.833 94.4808 629.765 101.169 640.007C102.025 638.878 102.932 637.859 103.79 636.739C111.529 626.618 131.625 626.048 140.666 634.376C146.256 639.525 148.007 648.349 148.198 655.679C148.589 670.611 148.108 685.529 148.379 700.477C142.36 700.633 136.131 700.52 130.093 700.487C129.944 691.474 132.556 650.464 125.577 646.612C98.647 631.747 104.001 674.09 104.121 687.426C104.163 691.791 104.288 696.201 103.976 700.551C98.2536 700.74 92.2212 700.573 86.4709 700.501C86.4608 687.514 86.415 674.563 86.36 661.543C86.3283 654.039 84.3354 643.481 74.6699 643.575C58.1806 643.735 60.4891 663.21 60.6159 674.57C60.7112 683.108 60.8666 691.847 61.006 700.474C54.9962 700.682 48.6422 700.617 42.6019 700.649C42.8607 677.326 42.609 653.544 42.5977 630.185L60.3976 629.998L60.4091 639.295C65.2242 632.71 67.5272 630.887 75.3479 628.933Z"/><path fill="#2A512B" transform="matrix(0.200893 0 0 0.200521 -0.000976562 0)" d="M572.16 628.97C583.414 628.215 591.31 629.476 597.322 639.836C603.324 632.961 607.501 629.772 616.763 628.935C628.874 627.228 642.151 633.825 643.411 647.259C645.022 664.43 643.432 683.202 644.353 700.696C638.4 700.893 632.004 700.768 626.014 700.754C625.998 692.587 628.333 650.853 622.229 647.185C595.171 630.927 600.423 674.162 600.503 688.193L600.554 700.521C594.686 700.719 588.623 700.568 582.736 700.494C582.773 690.216 585.177 653.532 578.301 646.493C576.345 644.49 573.997 643.451 571.188 643.421C567.818 643.384 564.47 644.548 562.064 646.943C559.891 649.105 558.565 652.01 557.936 654.985C555.859 664.811 557.554 689.285 557.712 700.53L539.257 700.528C539.252 678.712 540.153 651.32 538.981 630.126L556.992 630.068L556.898 639.649C561.907 633.081 564.097 630.62 572.16 628.97Z"/><path fill="#2A512B" transform="matrix(0.200893 0 0 0.200521 -0.000976562 0)" d="M187.102 629.39C207.049 624.786 226.923 637.327 231.358 657.316C235.793 677.305 223.088 697.078 203.067 701.346C183.283 705.563 163.799 693.038 159.416 673.285C155.034 653.532 167.392 633.939 187.102 629.39Z"/><path fill="#E6E6E4" transform="matrix(0.200893 0 0 0.200521 -0.000976562 0)" d="M190.9 643.395C193.797 643.187 198.89 642.827 201.399 644.077C217.954 652.328 217.1 680.258 199.785 687.319C172.451 689.92 171.238 652.29 190.9 643.395Z"/><path fill="#2A512B" transform="matrix(0.200893 0 0 0.200521 -0.000976562 0)" d="M429.426 629.283C449.343 625.459 468.588 638.512 472.405 658.435C476.222 678.359 463.166 697.604 443.246 701.416C423.336 705.226 404.106 692.173 400.29 672.259C396.475 652.345 409.518 633.106 429.426 629.283Z"/><path fill="#E6E6E4" transform="matrix(0.200893 0 0 0.200521 -0.000976562 0)" d="M432.497 643.492C435.292 643.261 439.951 642.985 442.398 644.232C458.248 652.306 457.861 680.986 440.402 687.273C430.523 688.019 423.49 685.22 420.43 675.186C416.85 663.448 419.325 647.391 432.497 643.492Z"/><path fill="#2A512B" transform="matrix(0.200893 0 0 0.200521 -0.000976562 0)" d="M851.611 628.46C899.121 626.491 876.139 673.92 884.803 700.431L866.305 700.344L866.018 691.81C853.643 704.469 833.367 707.425 822.422 691.392C808.174 656.089 857.738 660.64 864.345 653.351C864.956 651.646 865.335 651.106 864.47 649.208C861.332 642.321 852.044 641.249 845.771 643.932C842.41 645.37 841.491 648.462 840.303 651.657L823.119 651.656C824.373 634.645 836.221 629.512 851.611 628.46Z"/><path fill="#E6E6E4" transform="matrix(0.200893 0 0 0.200521 -0.000976562 0)" d="M863.749 667.046L864.618 667.626C865.025 671.437 864.451 675.924 864.112 679.797C858.393 688.531 852.598 689.633 842.552 687.457C839.488 684.858 836.531 679.82 839.354 676.187C844.124 670.051 856.455 668.74 863.749 667.046Z"/><path fill="#2A512B" transform="matrix(0.200893 0 0 0.200521 -0.000976562 0)" d="M969.201 629.013C971.058 628.872 972.917 628.777 974.778 628.727C1001.67 628.188 1008.83 646.973 1009.1 670.175C992.519 670.631 974.822 670.385 958.167 670.377C958.331 671.134 958.509 671.887 958.701 672.637C962.886 689.663 981.819 694.458 990.534 679.089L1000.94 679.023L1008.25 679.234C998.898 713.251 946.917 708.692 941.378 674.628C937.81 652.687 946.046 633.365 969.201 629.013Z"/><path fill="#E6E6E4" transform="matrix(0.200893 0 0 0.200521 -0.000976562 0)" d="M972.236 642.681C980.498 641.991 987.92 645.834 991.036 654.612C991.411 655.67 990.359 656.841 989.733 657.655C987.865 658.567 979.919 658.135 977.306 658.093L958.605 658.307C960.634 649.834 963.679 645.281 972.236 642.681Z"/><path fill="#2A512B" transform="matrix(0.200893 0 0 0.200521 -0.000976562 0)" d="M1076.3 599.959L1094.21 600.048C1094.34 619.244 1093.68 638.768 1094.42 657.922C1102.35 650.377 1112.96 638.285 1120.7 629.957C1127.36 629.725 1135.43 630.036 1142.19 630.122C1133.39 639.329 1124.64 648.583 1115.93 657.883C1121.84 665.635 1130.12 679.002 1135.76 687.43C1138.63 692.053 1141.71 696.253 1144.89 700.667C1138.62 701.006 1129.94 700.673 1123.49 700.617C1116.55 690.665 1110.41 680.155 1103.23 670.016C1100.37 672.758 1097.38 675.886 1094.57 678.719C1094.21 685.968 1094.1 693.228 1094.24 700.485L1076.42 700.459L1076.3 599.959Z"/><path fill="#2A512B" transform="matrix(0.200893 0 0 0.200521 -0.000976562 0)" d="M277.516 628.961C306.76 626.73 308.074 643.807 307.714 667.703C307.554 678.389 307.671 689.651 307.711 700.354L289.772 700.324C288.986 682.926 297.813 632.353 268.209 645.909C267.456 646.514 266.744 647.168 266.077 647.867C259.187 654.972 261.857 689.512 261.958 700.438L244.086 700.472C244.175 676.999 244.102 653.525 243.865 630.053L261.163 630.026L261.628 639.817C267.152 633.068 268.822 630.855 277.516 628.961Z"/><path fill="#2A512B" transform="matrix(0.200893 0 0 0.200521 -0.000976562 0)" d="M1189.87 610.711L1207.8 610.506C1207.67 616.925 1207.78 623.701 1207.78 630.15L1222.04 630.13L1222.03 643.786L1207.78 643.815C1207.74 651.444 1206.36 677.811 1210.13 684.295C1211.48 686.633 1218.71 686.007 1221.95 685.931L1221.91 699.091L1221.48 700.037C1211.48 703.672 1192.15 700.569 1190.64 687.109C1189.05 672.933 1189.78 657.874 1189.87 643.533L1179.24 643.723C1179.22 639.274 1179.05 634.629 1178.96 630.163L1189.72 630.084L1189.87 610.711Z"/><path fill="#2A512B" transform="matrix(0.200893 0 0 0.200521 -0.000976562 0)" d="M901.573 610.757C907.274 610.474 913.663 610.603 919.423 610.601L919.462 630.188L933.811 630.1L933.748 643.543L919.291 643.703L919.364 669.559C919.449 684.351 919.272 686.056 933.603 685.96L933.635 699.528C931.832 701.194 927.596 700.829 925.241 700.961C901.313 702.312 901.001 687.037 901.583 668.144C901.814 660.64 901.699 651.08 901.764 643.347L891.034 643.34C890.875 638.925 890.821 634.406 890.722 629.98L901.27 629.822C901.207 624.927 901.076 615.391 901.573 610.757Z"/><path fill="#2A512B" transform="matrix(0.200893 0 0 0.200521 -0.000976562 0)" d="M807.481 628.96C809.897 628.674 813.514 628.039 815.497 629.242C818.425 632.21 817.19 640.264 817.192 645.245L815.56 645.231C792.982 645.09 792.377 655.591 793.011 675.085C793.279 683.33 793.249 692.217 793.358 700.516C787.341 700.583 781.154 700.485 775.121 700.463C774.715 698.967 774.966 684.299 774.944 681.842C774.792 664.715 775.424 647.218 774.717 630.13C780.633 630.027 786.714 630.106 792.644 630.114L792.697 641.161C797.591 634.083 799.164 631.902 807.481 628.96Z"/><path fill="#2A512B" transform="matrix(0.200893 0 0 0.200521 -0.000976562 0)" d="M1151.16 630.18L1169.43 630.143C1168.68 652.108 1169.43 678.235 1169.51 700.481C1163.28 700.586 1157.06 700.597 1150.84 700.513C1152.04 680.318 1151.16 650.761 1151.16 630.18Z"/><path fill="#2A512B" transform="matrix(0.200893 0 0 0.200521 -0.000976562 0)" d="M659.78 630.184C665.427 630.003 671.7 630.162 677.397 630.19C678.258 652.395 677.538 677.643 677.687 700.178C675.292 700.91 662.942 700.647 659.668 700.631C659.521 677.149 659.559 653.666 659.78 630.184Z"/><path fill="#2A512B" transform="matrix(0.200893 0 0 0.200521 -0.000976562 0)" d="M545.789 420.308C548.038 420 548.388 419.971 550.616 420.373C551.389 421.808 551.756 439.266 551.901 442.667C534.695 441.973 513.317 438.392 496.594 434.601C490.145 433.007 486.129 432.067 479.991 429.535C504 428.617 522.606 424.55 545.789 420.308Z"/><path fill="#2A512B" transform="matrix(0.200893 0 0 0.200521 -0.000976562 0)" d="M483.765 655.698L525.821 655.624C525.813 660.554 525.746 665.483 525.62 670.411C512.223 670.991 497.189 670.642 483.667 670.599C483.936 665.649 483.815 660.657 483.765 655.698Z"/><path fill="#2A512B" transform="matrix(0.200893 0 0 0.200521 -0.000976562 0)" d="M1020.48 655.711C1033.66 655.187 1049.11 655.577 1062.36 655.733L1062.37 670.223C1048.43 670.409 1034.49 670.444 1020.54 670.33L1020.48 655.711Z"/><path fill="#2A512B" transform="matrix(0.200893 0 0 0.200521 -0.000976562 0)" d="M665.214 598.773C670.798 598.414 674.919 598.85 677.908 604.208C679.281 606.617 679.613 609.482 678.827 612.141C677.627 616.338 675.641 617.638 672.091 619.576C670.852 619.689 666.914 620.107 665.93 619.697C655.685 615.422 655.542 603.577 665.214 598.773Z"/><path fill="#2A512B" transform="matrix(0.200893 0 0 0.200521 -0.000976562 0)" d="M1158.45 598.941C1164.01 597.896 1169.41 601.429 1170.68 606.947C1171.95 612.465 1168.63 618 1163.17 619.49C1159.44 620.508 1155.45 619.4 1152.77 616.602C1150.1 613.805 1149.17 609.767 1150.35 606.081C1151.54 602.396 1154.65 599.656 1158.45 598.941Z"/></svg>